<?xml version="1.0" encoding="UTF-8"?>
<svg width="190px" height="28px" viewBox="0 0 190 28" version="1.1" xmlns="http://www.w3.org/2000/svg" xmlns:xlink="http://www.w3.org/1999/xlink">
    <!-- Generator: Sketch 54.1 (76490) - https://sketchapp.com -->
    <title></title>
    <desc>Created with Sketch.</desc>
    <g id="Page-1" stroke="none" stroke-width="1" fill="none" fill-rule="evenodd">
        <g id="Artboard" fill="#000000" fill-rule="nonzero">
            <path d="M16.212,2.828 C17.5746735,3.14533492 18.8253276,3.70999594 19.964,4.522 C21.1026724,5.33400406 22.0686627,6.32799412 22.862,7.504 C23.6553373,8.68000588 24.2106651,9.95865976 24.528,11.34 C24.6960008,12.0680036 25.0179976,12.6746642 25.494,13.16 C25.9700024,13.6453358 26.5626631,13.925333 27.272,14 C26.5626631,14.0560003 25.9700024,14.3219976 25.494,14.798 C25.0179976,15.2740024 24.6960008,15.8853296 24.528,16.632 C24.2106651,18.032007 23.6553373,19.3199941 22.862,20.496 C22.0686627,21.6720059 21.1026724,22.6659959 19.964,23.478 C18.8253276,24.2900041 17.5746735,24.8546651 16.212,25.172 C15.4839964,25.3400008 14.8960022,25.6666642 14.448,26.152 C13.9626642,26.6560025 13.6920003,27.2719964 13.636,28 C13.561333,27.2719964 13.290669,26.6560025 12.824,26.152 C12.357331,25.6666642 11.7693369,25.3400008 11.06,25.172 C9.0066564,24.6679975 7.22867418,23.6460077 5.726,22.106 C4.22332582,20.5659923 3.238669,18.7413439 2.772,16.632 C2.60399916,15.9039964 2.27733576,15.3020024 1.792,14.826 C1.30666424,14.3499976 0.70933688,14.074667 0,14 C0.70933688,13.925333 1.30666424,13.6500024 1.792,13.174 C2.27733576,12.6979976 2.60399916,12.0866704 2.772,11.34 C3.08933492,9.95865976 3.63999608,8.68000588 4.424,7.504 C5.20800392,6.32799412 6.16932764,5.33400406 7.308,4.522 C8.44667236,3.70999594 9.69732652,3.14533492 11.06,2.828 C11.7693369,2.65999916 12.357331,2.32866914 12.824,1.834 C13.290669,1.33933086 13.561333,0.72800364 13.636,0 C13.6920003,0.72800364 13.953331,1.33933086 14.42,1.834 C14.886669,2.32866914 15.4839964,2.65999916 16.212,2.828 Z M13.636,18.592 C14.4386707,18.592 15.1853299,18.3866687 15.876,17.976 C16.5666701,17.5653313 17.1126647,17.0100035 17.514,16.31 C17.9153353,15.6099965 18.116,14.8400042 18.116,14 C18.116,13.1599958 17.9153353,12.3900035 17.514,11.69 C17.1126647,10.9899965 16.5666701,10.4346687 15.876,10.024 C15.1853299,9.61333128 14.4386707,9.408 13.636,9.408 C12.8333293,9.408 12.0866701,9.61333128 11.396,10.024 C10.7053299,10.4346687 10.1593353,10.9899965 9.758,11.69 C9.35666466,12.3900035 9.156,13.1599958 9.156,14 C9.156,14.8400042 9.35666466,15.6099965 9.758,16.31 C10.1593353,17.0100035 10.7053299,17.5653313 11.396,17.976 C12.0866701,18.3866687 12.8333293,18.592 13.636,18.592 Z M7.728,7.112 L12.516,7.112 L12.516,4.872 C10.6866575,5.13333464 9.09067348,5.87999384 7.728,7.112 Z M14.756,7.112 L19.544,7.112 C18.1813265,5.87999384 16.5853425,5.13333464 14.756,4.872 L14.756,7.112 Z M13.636,23.184 C14.9240064,23.184 16.0533285,22.9786687 17.024,22.568 C17.8640042,22.2133316 18.7039958,21.6533372 19.544,20.888 L7.728,20.888 C8.53067068,21.6160036 9.43599496,22.1806647 10.444,22.582 C11.452005,22.9833353 12.5159944,23.184 13.636,23.184 Z M13.636,16.296 C13.0199969,16.296 12.4926689,16.0720022 12.054,15.624 C11.6153311,15.1759978 11.396,14.6346698 11.396,14 C11.396,13.3653302 11.6153311,12.8240022 12.054,12.376 C12.4926689,11.9279978 13.0199969,11.704 13.636,11.704 C14.2520031,11.704 14.7793311,11.9279978 15.218,12.376 C15.6566689,12.8240022 15.876,13.3653302 15.876,14 C15.876,14.6346698 15.6566689,15.1759978 15.218,15.624 C14.7793311,16.0720022 14.2520031,16.296 13.636,16.296 Z M8.652,18.592 C8.0919972,17.9759969 7.66733478,17.2760039 7.378,16.492 C7.08866522,15.7079961 6.944,14.8773377 6.944,14 C6.944,13.1226623 7.09333184,12.2873373 7.392,11.494 C7.69066816,10.7006627 8.11066396,10.0053363 8.652,9.408 L5.908,9.408 C5.10532932,10.7893402 4.704,12.315325 4.704,13.986 C4.704,15.656675 5.10532932,17.191993 5.908,18.592 L8.652,18.592 Z M21.392,18.592 C22.1760039,17.1733262 22.568,15.6380083 22.568,13.986 C22.568,12.3339917 22.1760039,10.808007 21.392,9.408 L18.62,9.408 C19.161336,10.0240031 19.5813318,10.7146628 19.88,11.48 C20.1973349,12.2826707 20.356,13.1179957 20.356,13.986 C20.356,14.8540043 20.1973349,15.6893293 19.88,16.492 C19.5813318,17.2573372 19.161336,17.9573302 18.62,18.592 L21.392,18.592 Z M29.764,6.244 L33.124,6.244 L33.124,12.264 L39.312,12.264 L39.312,6.244 L42.672,6.244 L42.672,21.924 L39.312,21.924 L39.312,15.176 L33.124,15.176 L33.124,21.924 L29.764,21.924 L29.764,6.244 Z M45.36,10.584 L48.412,10.584 L48.412,21.924 L45.36,21.924 L45.36,10.584 Z M48.412,8.82 L45.36,8.82 L45.36,6.244 L48.412,6.244 L48.412,8.82 Z M54.656,10.584 L56.868,10.584 L56.868,12.656 L54.656,12.656 L54.656,18.284 C54.656,18.8066693 54.7399992,19.1566658 54.908,19.334 C55.0760008,19.5113342 55.4213307,19.6 55.944,19.6 C56.2613349,19.6 56.5693318,19.5720003 56.868,19.516 L56.868,21.952 C56.4199978,22.026667 55.8320036,22.064 55.104,22.064 C54.0213279,22.064 53.2000028,21.8960017 52.64,21.56 C51.9493299,21.1306645 51.604,20.3933386 51.604,19.348 L51.604,12.656 L49.784,12.656 L49.784,10.584 L51.604,10.584 L51.604,7.168 L54.656,7.168 L54.656,10.584 Z M65.212,16.38 C65.0439992,16.5293341 64.7826684,16.6506662 64.428,16.744 C64.2226656,16.8000003 63.8773358,16.8559997 63.392,16.912 L62.692,17.024 C62.1319972,17.1360006 61.7120014,17.2946656 61.432,17.5 C61.0773316,17.7800014 60.9,18.1813307 60.9,18.704 C60.9,19.6746715 61.5159938,20.16 62.748,20.16 C63.7746718,20.16 64.483998,19.8053369 64.876,19.096 C65.1000011,18.703998 65.212,18.1813366 65.212,17.528 L65.212,16.38 Z M58.212,14.056 C58.286667,12.7119933 58.8653279,11.7133366 59.948,11.06 C60.8253377,10.5373307 61.9733262,10.276 63.392,10.276 C66.6400162,10.276 68.264,11.3493226 68.264,13.496 L68.264,19.404 C68.264,20.6920064 68.3853321,21.531998 68.628,21.924 L65.548,21.924 L65.52,21.812 C65.4079994,21.3639978 65.352,21.0373344 65.352,20.832 C64.885331,21.3173358 64.3066701,21.6813321 63.616,21.924 C63.0186637,22.1293344 62.3560036,22.232 61.628,22.232 C60.5079944,22.232 59.6120034,21.961336 58.94,21.42 C58.2119964,20.8226637 57.848,19.9640056 57.848,18.844 C57.848,17.6866609 58.2399961,16.8186696 59.024,16.24 C59.6026696,15.8293313 60.4706609,15.5400008 61.628,15.372 L62.608,15.232 C63.5226712,15.1386662 64.1386651,15.0266673 64.456,14.896 C64.9600025,14.6906656 65.212,14.354669 65.212,13.888 C65.212,13.2719969 65.016002,12.8426679 64.624,12.6 C64.3439986,12.4319992 63.8866698,12.348 63.252,12.348 C62.0199938,12.348 61.3480006,12.9173276 61.236,14.056 L58.212,14.056 Z M78.12,14.56 C78.0266662,13.9253302 77.7886686,13.4446683 77.406,13.118 C77.0233314,12.7913317 76.5146698,12.628 75.88,12.628 C75.0026623,12.628 74.330669,13.0293293 73.864,13.832 C73.4906648,14.5040034 73.304,15.3206619 73.304,16.282 C73.304,17.2433381 73.4906648,18.0506634 73.864,18.704 C74.2933355,19.4880039 74.9466623,19.88 75.824,19.88 C76.5146701,19.88 77.0653313,19.6746687 77.476,19.264 C77.8866687,18.8533313 78.1386662,18.2933369 78.232,17.584 L81.172,17.584 C80.9853324,19.058674 80.4206714,20.2019959 79.478,21.014 C78.5353286,21.8260041 77.326674,22.232 75.852,22.232 C74.7506612,22.232 73.7753376,21.9846691 72.926,21.49 C72.0766624,20.9953309 71.418669,20.3093377 70.952,19.432 C70.485331,18.5546623 70.252,17.5466724 70.252,16.408 C70.252,15.2319941 70.4759978,14.177338 70.924,13.244 C71.3720022,12.310662 72.0159958,11.5920025 72.856,11.088 C73.714671,10.546664 74.7319941,10.276 75.908,10.276 C76.8040045,10.276 77.6253296,10.4346651 78.372,10.752 C79.1560039,11.0693349 79.781331,11.5453302 80.248,12.18 C80.7706693,12.8333366 81.0599997,13.626662 81.116,14.56 L78.12,14.56 Z M82.88,6.244 L85.904,6.244 L85.904,12.152 L85.988,12.152 C86.3426684,11.5546637 86.8279969,11.0880017 87.444,10.752 C88.0226696,10.4346651 88.6106637,10.276 89.208,10.276 C90.7200076,10.276 91.7933302,10.705329 92.428,11.564 C92.969336,12.2920036 93.24,13.4213257 93.24,14.952 L93.24,21.924 L90.216,21.924 L90.216,15.512 C90.216,14.5599952 90.0620015,13.8553356 89.754,13.398 C89.4459985,12.9406644 88.9466701,12.712 88.256,12.712 C87.4346626,12.712 86.8373352,12.9686641 86.464,13.482 C86.0906648,13.9953359 85.904,14.8306609 85.904,15.988 L85.904,21.924 L82.88,21.924 L82.88,6.244 Z M95.648,10.584 L98.672,10.584 L98.672,21.924 L95.648,21.924 L95.648,10.584 Z M98.672,8.82 L95.648,8.82 L95.648,6.244 L98.672,6.244 L98.672,8.82 Z M110.264,13.328 L113.932,13.328 C114.697337,13.328 115.275998,13.1506684 115.668,12.796 C116.060002,12.4413316 116.256,11.8813372 116.256,11.116 C116.256,10.3506628 116.060002,9.79533506 115.668,9.45 C115.275998,9.10466494 114.697337,8.932 113.932,8.932 L110.264,8.932 L110.264,13.328 Z M106.904,6.244 L115.136,6.244 C116.032004,6.244 116.82533,6.43999804 117.516,6.832 C118.169337,7.22400196 118.682665,7.7466634 119.056,8.4 C119.429335,9.0533366 119.616,9.78132932 119.616,10.584 C119.616,12.525343 118.813341,13.8319966 117.208,14.504 L117.208,14.56 C118.53334,14.8960017 119.270666,16.1186561 119.42,18.228 L119.448,18.648 C119.485334,19.4133372 119.532,19.991998 119.588,20.384 C119.681334,21.0746701 119.839999,21.5879983 120.064,21.924 L116.704,21.924 C116.573333,21.6253318 116.48,21.242669 116.424,20.776 C116.368,20.4959986 116.321334,20.0573363 116.284,19.46 C116.246666,18.8626637 116.209334,18.4333346 116.172,18.172 C116.059999,17.3319958 115.812669,16.7253352 115.43,16.352 C115.047331,15.9786648 114.445337,15.792 113.624,15.792 L110.264,15.792 L110.264,21.924 L106.904,21.924 L106.904,6.244 Z M128.912,16.38 C128.743999,16.5293341 128.482668,16.6506662 128.128,16.744 C127.922666,16.8000003 127.577336,16.8559997 127.092,16.912 L126.392,17.024 C125.831997,17.1360006 125.412001,17.2946656 125.132,17.5 C124.777332,17.7800014 124.6,18.1813307 124.6,18.704 C124.6,19.6746715 125.215994,20.16 126.448,20.16 C127.474672,20.16 128.183998,19.8053369 128.576,19.096 C128.800001,18.703998 128.912,18.1813366 128.912,17.528 L128.912,16.38 Z M121.884,14.056 C121.958667,12.7119933 122.537328,11.7133366 123.62,11.06 C124.497338,10.5373307 125.654659,10.276 127.092,10.276 C130.340016,10.276 131.964,11.3493226 131.964,13.496 L131.964,19.404 C131.964,20.6920064 132.085332,21.531998 132.328,21.924 L129.248,21.924 C129.117333,21.531998 129.052,21.1680017 129.052,20.832 C128.585331,21.3173358 128.00667,21.6813321 127.316,21.924 C126.718664,22.1293344 126.056004,22.232 125.328,22.232 C124.207994,22.232 123.312003,21.961336 122.64,21.42 C121.911996,20.8226637 121.548,19.9640056 121.548,18.844 C121.548,17.6866609 121.939996,16.8186696 122.724,16.24 C123.30267,15.8293313 124.170661,15.5400008 125.328,15.372 L126.308,15.232 C127.222671,15.1386662 127.838665,15.0266673 128.156,14.896 C128.660003,14.6906656 128.912,14.354669 128.912,13.888 C128.912,13.2719969 128.716002,12.8426679 128.324,12.6 C128.043999,12.4319992 127.591336,12.348 126.966,12.348 C126.340664,12.348 125.860002,12.483332 125.524,12.754 C125.187998,13.024668 124.992,13.4586637 124.936,14.056 L121.884,14.056 Z M134.372,10.584 L137.424,10.584 L137.424,21.924 L134.372,21.924 L134.372,10.584 Z M137.424,8.82 L134.372,8.82 L134.372,6.244 L137.424,6.244 L137.424,8.82 Z M139.888,6.244 L142.94,6.244 L142.94,21.924 L139.888,21.924 L139.888,6.244 Z M153.44,16.716 C153.44,17.7053383 153.78533,18.4519975 154.476,18.956 C155.05467,19.4040022 155.838662,19.628 156.828,19.628 C157.593337,19.628 158.237331,19.4973346 158.76,19.236 C159.45067,18.8999983 159.796,18.3773369 159.796,17.668 C159.796,17.2199978 159.628002,16.8373349 159.292,16.52 C158.993332,16.2586654 158.55467,16.0253344 157.976,15.82 C157.621332,15.6893327 157.024004,15.5213344 156.184,15.316 L155.26,15.064 C154.345329,14.8213321 153.617336,14.5600014 153.076,14.28 C152.32933,13.9253316 151.769335,13.477336 151.396,12.936 C150.947998,12.3013302 150.724,11.5266712 150.724,10.612 C150.724,9.60399496 151.01333,8.7266704 151.592,7.98 C152.114669,7.28932988 152.823996,6.7573352 153.72,6.384 C154.560004,6.04799832 155.465328,5.88 156.436,5.88 C158.190675,5.88 159.609328,6.27199608 160.692,7.056 C161.924006,7.93333772 162.54,9.22132484 162.54,10.92 L159.292,10.92 C159.236,10.0426623 158.91867,9.40800196 158.34,9.016 C157.854664,8.69866508 157.164004,8.54 156.268,8.54 C155.651997,8.54 155.138669,8.67066536 154.728,8.932 C154.223997,9.26800168 153.972,9.73466368 153.972,10.332 C153.972,10.724002 154.079332,11.0273323 154.294,11.242 C154.508668,11.4566677 154.93333,11.6759989 155.568,11.9 C155.997335,12.0306673 156.911993,12.2826648 158.312,12.656 L158.676,12.74 C159.348003,12.9080008 159.907998,13.0946656 160.356,13.3 C161.140004,13.6546684 161.755998,14.102664 162.204,14.644 C162.78267,15.3533369 163.072,16.2306614 163.072,17.276 C163.072,18.2466715 162.824669,19.1146628 162.33,19.88 C161.835331,20.6453372 161.130671,21.2333313 160.216,21.644 C159.226662,22.0920022 158.060007,22.316 156.716,22.316 C155.539994,22.316 154.476005,22.120002 153.524,21.728 C152.497328,21.2986645 151.69467,20.6826707 151.116,19.88 C150.499997,19.0026623 150.192,17.9480062 150.192,16.716 L153.44,16.716 Z M168.42,9.156 L163.856,9.156 L163.856,6.244 L176.344,6.244 L176.344,9.156 L171.78,9.156 L171.78,21.924 L168.42,21.924 L168.42,9.156 Z M180.404,16.716 C180.404,17.7053383 180.739997,18.4519975 181.412,18.956 C182.009336,19.4040022 182.793328,19.628 183.764,19.628 C184.529337,19.628 185.173331,19.4973346 185.696,19.236 C186.405337,18.8999983 186.76,18.3773369 186.76,17.668 C186.76,17.2199978 186.592002,16.8373349 186.256,16.52 C185.957332,16.2586654 185.51867,16.0253344 184.94,15.82 C184.585332,15.6893327 183.997337,15.5213344 183.176,15.316 L182.224,15.064 C181.309329,14.8213321 180.581336,14.5600014 180.04,14.28 C179.29333,13.9253316 178.724002,13.477336 178.332,12.936 C177.883998,12.3013302 177.66,11.5266712 177.66,10.612 C177.66,9.60399496 177.94933,8.7266704 178.528,7.98 C179.050669,7.28932988 179.759996,6.7573352 180.656,6.384 C181.496004,6.04799832 182.401328,5.88 183.372,5.88 C185.126675,5.88 186.545328,6.27199608 187.628,7.056 C188.860006,7.93333772 189.476,9.22132484 189.476,10.92 L186.228,10.92 C186.172,10.0426623 185.85467,9.40800196 185.276,9.016 C184.809331,8.69866508 184.128004,8.54 183.232,8.54 C182.59733,8.54 182.074669,8.67066536 181.664,8.932 C181.159997,9.26800168 180.908,9.73466368 180.908,10.332 C180.908,10.724002 181.015332,11.0273323 181.23,11.242 C181.444668,11.4566677 181.86933,11.6759989 182.504,11.9 C182.933335,12.0306673 183.847993,12.2826648 185.248,12.656 L185.584,12.74 C186.27467,12.9080008 186.834665,13.0853324 187.264,13.272 C188.066671,13.6266684 188.691998,14.0839972 189.14,14.644 C189.71867,15.3533369 190.008,16.2306614 190.008,17.276 C190.008,18.2466715 189.760669,19.1146628 189.266,19.88 C188.771331,20.6453372 188.066671,21.2333313 187.152,21.644 C186.162662,22.0920022 184.996007,22.316 183.652,22.316 C182.475994,22.316 181.412005,22.120002 180.46,21.728 C179.433328,21.2986645 178.63067,20.6826707 178.052,19.88 C177.435997,19.0026623 177.137333,17.9480062 177.156,16.716 L180.404,16.716 Z" id=""></path>
        </g>
    </g>
</svg>